<svg xmlns="http://www.w3.org/2000/svg" viewBox="0 0 48 48" width="48" height="48" role="img" aria-label="Code">
  <path d="M13 0h22a13 13 0 0 1 13 13v22a13 13 0 0 1-13 13H4a4 4 0 0 1-4-4V13A13 13 0 0 1 13 0Z" fill="#0a6cb4"/>
  <rect x="9" y="11" width="30" height="26" rx="3" fill="#fff"/>
  <rect x="9" y="11" width="30" height="5.5" rx="3" fill="#0a6cb4" opacity=".5"/>
  <rect x="9" y="13.5" width="30" height="3" fill="#0a6cb4" opacity=".5"/>
  <circle cx="12.8" cy="13.7" r="1.1" fill="#fff" opacity=".85"/>
  <circle cx="16.4" cy="13.7" r="1.1" fill="#fff" opacity=".85"/>
  <circle cx="20" cy="13.7" r="1.1" fill="#fff" opacity=".85"/>
  <g fill="none" stroke="#0a6cb4" stroke-width="2.1" stroke-linecap="round" stroke-linejoin="round">
    <path d="M18.6 22.6 14.4 26.8l4.2 4.2"/>
    <path d="M29.4 22.6l4.2 4.2-4.2 4.2"/>
  </g>
  <path d="M25.6 21.4 22.4 32.2" stroke="#0a6cb4" stroke-width="2.1" stroke-linecap="round" opacity=".45"/>
</svg>
